<?xml version="1.0" encoding="UTF-8"?>
<svg xmlns="http://www.w3.org/2000/svg" xmlns:xlink="http://www.w3.org/1999/xlink" width="24px" height="24px" viewBox="0 0 24 24" version="1.1">
<g id="surface1">
<path style=" stroke:none;fill-rule:nonzero;fill:rgb(9.803922%,46.666667%,95.294118%);fill-opacity:1;" d="M 24 12 C 24 5.375 18.625 0 12 0 C 5.375 0 0 5.375 0 12 C 0 17.988281 4.386719 22.953125 10.125 23.855469 L 10.125 15.46875 L 7.078125 15.46875 L 7.078125 12 L 10.125 12 L 10.125 9.355469 C 10.125 6.347656 11.917969 4.6875 14.65625 4.6875 C 15.972656 4.6875 17.34375 4.921875 17.34375 4.921875 L 17.34375 7.875 L 15.832031 7.875 C 14.339844 7.875 13.875 8.796875 13.875 9.75 L 13.875 12 L 17.203125 12 L 16.671875 15.46875 L 13.875 15.46875 L 13.875 23.855469 C 19.613281 22.957031 24 17.992188 24 12 Z M 24 12 "/>
<path style=" stroke:none;fill-rule:nonzero;fill:rgb(99.607843%,99.607843%,99.607843%);fill-opacity:1;" d="M 16.671875 15.46875 L 17.203125 12 L 13.875 12 L 13.875 9.75 C 13.875 8.800781 14.339844 7.875 15.832031 7.875 L 17.34375 7.875 L 17.34375 4.921875 C 17.34375 4.921875 15.972656 4.6875 14.65625 4.6875 C 11.917969 4.6875 10.125 6.347656 10.125 9.355469 L 10.125 12 L 7.078125 12 L 7.078125 15.46875 L 10.125 15.46875 L 10.125 23.855469 C 10.734375 23.949219 11.363281 24 12 24 C 12.636719 24 13.265625 23.949219 13.875 23.855469 L 13.875 15.46875 Z M 16.671875 15.46875 "/>
</g>
</svg>
